<?xml version="1.0" standalone="no"?>
<!DOCTYPE svg PUBLIC "-//W3C//DTD SVG 20010904//EN"
 "http://www.w3.org/TR/2001/REC-SVG-20010904/DTD/svg10.dtd">
<svg version="1.0" xmlns="http://www.w3.org/2000/svg"
 width="500.000000pt" height="500.000000pt" viewBox="0 0 500.000000 500.000000"
 preserveAspectRatio="xMidYMid meet">
<metadata>
Created by potrace 1.14, written by Peter Selinger 2001-2017
</metadata>
<g transform="translate(0.000000,500.000000) scale(0.100000,-0.100000)"
fill="#000000" stroke="none">
<path d="M956 3640 c-105 -33 -217 -125 -262 -217 -25 -51 -25 -179 0 -336 16
-99 16 -107 -4 -127 -11 -11 -28 -20 -39 -20 -10 0 -30 -12 -44 -26 -47 -46
-22 -125 44 -139 34 -8 60 -42 55 -71 -14 -73 -37 -348 -33 -390 13 -129 126
-235 294 -279 132 -34 225 -10 239 61 9 46 -16 102 -48 108 -13 2 -52 9 -86
15 -84 13 -149 52 -169 99 -14 33 -13 131 1 208 2 10 7 51 10 89 4 39 9 87 12
108 4 41 -11 81 -45 111 l-21 20 30 31 c34 36 44 86 30 153 -8 37 -15 90 -26
208 -7 70 16 128 64 163 40 28 127 61 162 61 42 0 59 9 75 41 27 52 13 104
-36 133 -36 22 -125 20 -203 -4z"/>
<path d="M3955 3651 c-37 -16 -58 -49 -58 -92 0 -57 31 -86 99 -92 65 -6 144
-46 184 -94 l32 -38 -6 -95 c-3 -52 -8 -108 -11 -125 -25 -155 -23 -180 21
-226 l27 -28 -21 -18 c-21 -17 -50 -78 -47 -98 1 -5 5 -44 9 -85 4 -41 10 -93
12 -115 23 -173 20 -220 -21 -265 -26 -28 -109 -60 -180 -69 -67 -8 -92 -25
-96 -63 -1 -10 -2 -24 -3 -30 -5 -32 18 -71 50 -84 93 -39 289 11 385 98 94
87 115 162 93 338 -4 30 -8 66 -9 80 -1 14 -6 59 -10 100 -4 41 -9 77 -11 79
-8 9 40 51 58 51 30 0 68 45 68 80 0 46 -15 67 -57 81 -63 20 -66 25 -59 104
4 38 8 79 10 90 9 47 19 153 19 192 -2 124 -147 277 -301 317 -56 15 -149 18
-177 7z"/>
<path d="M2513 3623 c-77 -30 -126 -76 -159 -148 -59 -128 -29 -296 79 -454
38 -55 43 -95 14 -130 -11 -12 -59 -37 -79 -40 -13 -2 -121 -63 -164 -92 -68
-46 -140 -134 -183 -223 -23 -46 -41 -89 -41 -95 0 -7 -4 -10 -9 -7 -16 10 -3
161 20 220 11 31 37 77 58 104 21 26 41 61 45 77 4 17 17 44 29 60 34 46 69
124 82 180 25 109 -5 209 -79 269 -118 97 -293 51 -353 -93 -35 -82 -11 -224
53 -321 70 -106 65 -134 -32 -175 -93 -40 -179 -98 -212 -144 -28 -38 -29 -44
-30 -160 l-1 -121 42 -44 c51 -53 126 -96 238 -137 91 -33 251 -73 339 -84 30
-4 62 -9 70 -10 106 -20 474 -27 610 -12 41 5 98 10 125 13 245 20 557 131
642 228 l39 45 1 126 1 126 -53 54 c-40 42 -79 67 -159 105 -107 52 -113 58
-107 108 1 7 20 41 42 75 65 101 86 214 59 317 -14 54 -89 130 -143 147 -56
17 -131 8 -182 -21 -147 -87 -160 -278 -30 -467 20 -29 34 -58 31 -65 -3 -7
11 -32 30 -55 65 -78 93 -152 99 -261 3 -43 1 -78 -4 -78 -5 0 -19 25 -31 56
-26 64 -84 155 -126 200 -53 55 -186 134 -276 163 -45 15 -56 28 -62 74 -4 30
3 47 39 103 24 36 56 96 70 133 64 158 28 338 -84 415 -41 29 -125 59 -135 49
-3 -4 -6 0 -6 7 0 11 -3 11 -12 2 -6 -6 -18 -8 -27 -3 -10 5 -39 -1 -78 -16z"/>
<path d="M1665 1744 c-89 -30 -138 -111 -138 -229 0 -90 30 -157 91 -199 35
-25 51 -29 104 -30 100 -1 162 43 188 133 7 26 6 31 -8 32 -9 0 -34 2 -54 4
-31 2 -37 -1 -42 -21 -9 -34 -45 -64 -78 -64 -40 0 -78 43 -80 89 -5 132 14
195 62 206 48 11 90 -24 90 -75 0 -21 4 -22 58 -16 31 3 58 5 59 5 5 2 -19 69
-33 96 -34 65 -138 97 -219 69z"/>
<path d="M700 1675 l0 -75 -22 14 c-38 24 -83 26 -117 5 -47 -28 -65 -72 -65
-159 -1 -108 31 -163 101 -176 25 -5 93 22 93 37 0 5 5 9 11 9 6 0 8 -9 4 -20
-6 -18 -2 -20 44 -20 l51 0 0 230 0 230 -50 0 -50 0 0 -75z m-17 -125 c8 -12
15 -49 16 -90 2 -58 -1 -72 -18 -89 -12 -12 -28 -21 -36 -21 -54 0 -69 170
-18 208 24 17 40 15 56 -8z"/>
<path d="M3875 1730 c-40 -5 -40 -5 -43 -52 -3 -46 -5 -48 -33 -48 -27 0 -29
-2 -29 -40 0 -36 3 -40 25 -40 14 0 25 -3 26 -7 0 -5 2 -48 3 -98 2 -49 4 -98
4 -108 4 -38 83 -62 165 -48 4 0 7 17 7 36 0 32 -2 35 -29 35 -17 0 -33 6 -38
13 -4 6 -8 49 -9 95 l-2 82 38 0 c34 0 37 2 34 28 -1 15 -2 33 -3 40 -1 7 -15
12 -36 12 -34 0 -35 1 -32 33 6 60 -3 73 -48 67z"/>
<path d="M964 1624 c-92 -31 -137 -146 -95 -244 25 -59 72 -91 141 -95 59 -3
98 13 135 56 35 43 32 56 -15 61 -33 3 -43 -1 -64 -24 -39 -45 -90 -30 -102
31 l-6 31 110 0 110 0 -4 37 c-11 114 -107 182 -210 147z m83 -62 c19 -12 35
-62 20 -63 -40 -3 -99 -1 -103 3 -10 10 15 56 33 61 28 7 37 7 50 -1z"/>
<path d="M2054 1624 c-123 -42 -137 -261 -21 -321 37 -19 101 -24 138 -11 62
21 110 106 103 180 -12 121 -110 190 -220 152z m90 -70 c18 -17 18 -19 21 -84
3 -68 -11 -109 -41 -116 -45 -11 -59 15 -59 107 0 68 3 83 19 95 25 18 41 18
60 -2z"/>
<path d="M2492 1629 c-13 -5 -32 -19 -43 -32 l-18 -22 -1 28 c0 25 -3 27 -45
27 l-45 0 0 -170 0 -170 50 0 50 0 0 113 c0 119 6 139 46 151 38 11 48 -16 50
-138 1 -61 2 -115 3 -119 0 -4 22 -7 48 -5 l48 3 0 125 c1 137 -7 174 -39 195
-28 18 -76 24 -104 14z"/>
<path d="M2873 1632 c-12 -2 -33 -14 -47 -28 -15 -13 -24 -21 -21 -18 2 4 0
15 -6 25 -7 14 -21 19 -49 19 l-40 0 0 -170 0 -170 50 0 50 0 0 113 c0 120 9
147 48 153 37 6 47 -21 48 -140 1 -61 2 -115 3 -119 0 -4 22 -7 48 -5 l48 3 0
120 c1 126 -6 170 -28 193 -17 16 -73 29 -104 24z"/>
<path d="M3173 1620 c-44 -20 -77 -54 -89 -90 -11 -37 -12 -111 -2 -142 12
-35 82 -98 111 -100 12 0 36 -2 52 -3 42 -4 86 17 118 54 35 42 35 61 0 62
-16 0 -36 2 -45 4 -10 2 -18 -3 -18 -11 0 -21 -46 -47 -69 -39 -31 10 -51 34
-51 61 0 24 0 24 109 24 l109 0 -4 33 c-8 58 -13 73 -35 101 -44 56 -121 75
-186 46z m93 -58 c21 -13 37 -54 25 -61 -10 -7 -101 -4 -108 3 -2 2 1 15 6 29
12 30 52 46 77 29z"/>
<path d="M3555 1627 c-71 -23 -115 -97 -109 -184 4 -61 16 -89 52 -121 75 -66
205 -44 246 42 21 46 15 56 -35 56 -32 0 -41 -4 -51 -25 -32 -71 -119 -12
-103 71 2 10 4 26 4 35 1 9 9 27 19 39 22 27 69 19 82 -15 7 -18 17 -23 43
-23 56 0 63 10 40 55 -33 63 -115 94 -188 70z"/>
<path d="M4145 1630 c-76 -17 -119 -77 -119 -170 0 -104 54 -171 142 -175 57
-3 88 8 124 42 46 43 61 106 45 182 -18 88 -101 141 -192 121z m62 -68 c20
-13 30 -55 28 -121 -2 -66 -17 -91 -56 -91 -32 0 -44 30 -44 112 0 67 3 82 19
94 22 16 35 17 53 6z"/>
<path d="M4560 1633 c-8 -3 -25 -17 -38 -31 l-23 -27 3 25 c3 23 0 25 -44 28
l-48 3 0 -171 0 -170 50 0 50 0 0 84 c0 103 12 141 49 154 29 10 40 40 33 90
-3 23 -6 24 -32 15z"/>
<path d="M1190 1625 c0 -2 25 -78 56 -169 l56 -166 39 0 c38 0 47 6 54 37 2
10 27 82 54 161 l49 142 -37 0 -36 0 -34 -107 -34 -108 -29 95 c-16 52 -31
100 -33 107 -3 10 -105 18 -105 8z"/>
</g>
</svg>
